<svg xmlns="http://www.w3.org/2000/svg" viewBox="0 0 48 48"><defs><style>.cls-1{fill:#fac100;}.cls-2{fill:#ff9500;}.cls-3{fill:#e67244;}.cls-4{fill:#c6512b;}.cls-5{fill:#2d4a60;}.cls-6{fill:#263f52;}.cls-7{fill:#ffd188;}.cls-8{fill:#f9a06f;}</style></defs><title>Creative</title><g id="_31_-_40" data-name="31 - 40"><g id="Creative"><path class="cls-1" d="M7.032,29.968,32.243,4.757a6,6,0,0,1,8.485,0l2.515,2.515a6,6,0,0,1,0,8.485L18.032,40.968a7.781,7.781,0,0,1-3.865,2.1L5.422,44.954a2,2,0,0,1-2.376-2.376l1.881-8.745A7.781,7.781,0,0,1,7.032,29.968Z" id="id_111" style="fill: rgb(79, 170, 219);"></path><path class="cls-2" d="M33.628,14.372,10.837,37.163l5.224,5.223a7.761,7.761,0,0,0,1.971-1.418l21.1-21.1Z" id="id_112" style="fill: rgb(79, 210, 219);"></path><path class="cls-3" d="M43.243,15.757a6,6,0,0,0,0-8.485L40.728,4.757a6,6,0,0,0-8.485,0L29,8,40,19Z" id="id_113" style="fill: rgb(49, 64, 66);"></path><path class="cls-4" d="M40,19l3.243-3.243a6,6,0,0,0,0-8.485L42.026,6.056l-7.5,7.475Z" id="id_114" style="fill: rgb(51, 79, 82);"></path><rect class="cls-5" x="32.128" y="5.972" width="4.244" height="15.556" transform="translate(0.307 28.241) rotate(-44.992)" id="id_115"></rect><rect class="cls-6" x="34.893" y="12.648" width="4.244" height="7.735" transform="translate(-0.837 31.011) rotate(-45)" id="id_116"></rect><path class="cls-7" d="M17.462,41.462,6.538,30.538a7.77,7.77,0,0,0-1.611,3.295L3.046,42.578a2,2,0,0,0,2.376,2.376l8.745-1.881A7.77,7.77,0,0,0,17.462,41.462Z" id="id_117"></path><path class="cls-8" d="M17.462,41.462,12,36,3.577,44.4a1.983,1.983,0,0,0,1.845.554l8.745-1.881A7.77,7.77,0,0,0,17.462,41.462Z" id="id_118" style="fill: rgb(193, 212, 195);"></path><path class="cls-5" d="M4.2,37.2,3.046,42.578a2,2,0,0,0,2.376,2.376L10.8,43.8Z" id="id_119"></path><path class="cls-6" d="M7.494,40.494,3.577,44.4a1.983,1.983,0,0,0,1.845.554L10.8,43.8Z" id="id_120"></path></g></g></svg>