<?xml version="1.0" encoding="UTF-8" standalone="no"?> <svg xmlns="http://www.w3.org/2000/svg" xmlns:xlink="http://www.w3.org/1999/xlink" viewBox="0 0 64 64"><defs><style>.cls-1{fill:url(#linear-gradient);}.cls-2{fill:url(#linear-gradient-2);}</style><linearGradient id="linear-gradient" x1="2.75" y1="32" x2="61.25" y2="32" gradientUnits="userSpaceOnUse"><stop offset="0" stop-color="#ffd746"/><stop offset="0.58" stop-color="#ffb04a"/><stop offset="1" stop-color="#ff984c"/></linearGradient><linearGradient id="linear-gradient-2" x1="12.73" x2="51.27" xlink:href="#linear-gradient"/></defs><g id="Layer_11" data-name="Layer 11"><path class="cls-1" d="M32,2.75A29.25,29.25,0,1,0,61.25,32,29.28,29.28,0,0,0,32,2.75Zm0,56A26.75,26.75,0,1,1,58.75,32,26.78,26.78,0,0,1,32,58.75Z"/><path class="cls-2" d="M49.8,17.86a4.26,4.26,0,0,0-6,.45L29.3,35.13a1.76,1.76,0,0,1-2.6.07l-6.65-7a4.25,4.25,0,1,0-6.15,5.86L25.12,45.85a4.27,4.27,0,0,0,3.08,1.32h.1a4.24,4.24,0,0,0,3.11-1.48L50.24,23.86a4.26,4.26,0,0,0-.44-6Zm-1.45,4.37L29.52,44.06a1.76,1.76,0,0,1-1.28.61,1.66,1.66,0,0,1-1.31-.54L15.71,32.37a1.76,1.76,0,0,1,.06-2.48A1.81,1.81,0,0,1,17,29.41a1.75,1.75,0,0,1,1.23.54l6.64,7a4.25,4.25,0,0,0,6.3-.15L45.7,19.94a1.75,1.75,0,0,1,3.07,1A1.8,1.8,0,0,1,48.35,22.23Z"/></g></svg>