<?xml version="1.0" encoding="iso-8859-1"?>
<!-- Generator: Adobe Illustrator 19.0.0, SVG Export Plug-In . SVG Version: 6.00 Build 0)  -->
<svg version="1.1" xmlns="http://www.w3.org/2000/svg" xmlns:xlink="http://www.w3.org/1999/xlink" x="0px" y="0px"
	 viewBox="0 0 512 512" style="enable-background:new 0 0 512 512;" xml:space="preserve">
<g id="_x34_28_x2C__About_x2C__Info_x2C__Note_x2C__Question_x2C__Support">
	<g id="XMLID_12489_">
		<g id="XMLID_12490_">
			<g id="XMLID_30580_">
				<g id="XMLID_12492_">
					<path id="XMLID_12493_" style="fill:#4DABF4;" d="M265,340c13.81,0,25,11.19,25,25s-11.19,25-25,25c-13.81,0-25-11.19-25-25
						S251.19,340,265,340z"/>
				</g>
				<g id="XMLID_12494_">
					<path id="XMLID_12495_" style="fill:#4DABF4;" d="M298,172.96c0,0.65-0.02,1.32-0.06,1.98L291.47,280
						c-0.83,14.01-12.43,24.96-26.47,24.96c-14.04,0-25.64-10.95-26.47-24.96l-6.48-105.06C230.94,155.98,246.01,140,265,140
						C283.32,140,298,154.88,298,172.96z"/>
				</g>
				<g id="XMLID_12496_">
					<path id="XMLID_12497_" style="fill:#F06464;" d="M260,90c93.89,0,170,76.11,170,170c0,93.89-76.11,170-170,170
						c-93.89,0-170-76.11-170-170C90,166.11,166.11,90,260,90z M297.94,174.94c0.04-0.66,0.06-1.33,0.06-1.98
						c0-18.08-14.68-32.96-33-32.96c-18.99,0-34.06,15.98-32.95,34.94L238.53,280c0.83,14.01,12.43,24.96,26.47,24.96
						c14.04,0,25.64-10.95,26.47-24.96L297.94,174.94z M290,365c0-13.81-11.19-25-25-25c-13.81,0-25,11.19-25,25s11.19,25,25,25
						C278.81,390,290,378.81,290,365z"/>
				</g>
				<g id="XMLID_12501_">
					<path id="XMLID_12502_" style="fill:#FBC41A;" d="M260,30c127.03,0,230,102.97,230,230c0,127.03-102.97,230-230,230
						C132.97,490,30,387.03,30,260C30,132.97,132.97,30,260,30z M430,260c0-93.89-76.11-170-170-170c-93.89,0-170,76.11-170,170
						c0,93.89,76.11,170,170,170C353.89,430,430,353.89,430,260z"/>
				</g>
			</g>
			<g id="XMLID_12491_">
				<g id="XMLID_12505_">
					<path id="XMLID_12506_" d="M260,500c-64.108,0-124.378-24.964-169.707-70.293C44.964,384.379,20,324.108,20,260
						S44.964,135.622,90.293,90.293C135.622,44.964,195.892,20,260,20s124.379,24.964,169.707,70.293
						C475.036,135.622,500,195.892,500,260s-24.964,124.379-70.293,169.707C384.379,475.036,324.108,500,260,500z M260,40
						C138.691,40,40,138.691,40,260s98.691,220,220,220s220-98.691,220-220S381.309,40,260,40z"/>
				</g>
				<g id="XMLID_12509_">
					<path id="XMLID_12510_" d="M260,440c-99.252,0-180-80.748-180-180c0-99.252,80.748-180,180-180c99.252,0,180,80.748,180,180
						C440,359.252,359.252,440,260,440z M260,100c-88.224,0-160,71.776-160,160c0,88.225,71.776,160,160,160
						c88.225,0,160-71.775,160-160C420,171.776,348.225,100,260,100z"/>
				</g>
				<g id="XMLID_12513_">
					<path id="XMLID_12514_" d="M265,314.96c-19.299,0-35.311-15.097-36.453-34.368l-6.479-105.036
						c-0.701-11.979,3.435-23.354,11.646-32.059C241.923,134.794,253.034,130,265,130c23.71,0,43,19.272,43,42.96
						c0,0.863-0.026,1.733-0.078,2.585l-6.471,105.069C300.31,299.863,284.299,314.96,265,314.96z M265,150
						c-6.401,0-12.345,2.564-16.736,7.22c-4.393,4.657-6.605,10.743-6.231,17.136l6.478,105.029
						c0.518,8.744,7.76,15.575,16.489,15.575c8.728,0,15.971-6.831,16.487-15.552l6.472-105.083
						c0.027-0.449,0.041-0.914,0.041-1.365C288,160.3,277.683,150,265,150z"/>
				</g>
				<g id="XMLID_12517_">
					<path id="XMLID_12518_" d="M265,400c-19.299,0-35-15.701-35-35s15.701-35,35-35s35,15.701,35,35S284.299,400,265,400z M265,350
						c-8.271,0-15,6.728-15,15s6.729,15,15,15c8.271,0,15-6.728,15-15S273.271,350,265,350z"/>
				</g>
			</g>
		</g>
	</g>
</g>
<g id="Layer_1">
</g>
</svg>
