<svg width="193.93408203125px" height="129.2px" xmlns="http://www.w3.org/2000/svg" viewBox="153.032958984375 10.400000000000006 193.93408203125 129.2" style="background: none;" preserveAspectRatio="xMidYMid"><defs><filter id="editing-cake" x="-100%" y="-100%" width="300%" height="300%"><feFlood flood-color="#2d1500" result="flood-shadow"></feFlood><feFlood flood-color="#894619"></feFlood><feComposite operator="in" in2="SourceAlpha"></feComposite><feConvolveMatrix order="7,10" divisor="1" result="conv" kernelMatrix="0 0 0 1 0 0 0 0 0 1 0 1 0 0 0 0 1 0 1 0 0 0 1 0 0 0 1 0 0 1 0 0 0 1 0 0 1 0 0 0 1 0 1 0 0 0 0 0 1 1 0 0 0 0 0 1 0 1 1 0 1 1 0 0 0 0 1 0 0 0 "></feConvolveMatrix><feGaussianBlur stdDeviation="0.5"></feGaussianBlur><feOffset dy="4" result="offset"></feOffset><feComposite operator="in" in="flood-shadow" in2="offset"></feComposite><feGaussianBlur stdDeviation="4"></feGaussianBlur><feComponentTransfer><feFuncA type="linear" slope="0.7" intercept="-0.2"></feFuncA></feComponentTransfer><feOffset dy="4" result="shadow"></feOffset><feGaussianBlur in="SourceGraphic" stdDeviation="0.5"></feGaussianBlur><feOffset dy="0" result="x0"></feOffset><feGaussianBlur in="SourceGraphic" stdDeviation="1"></feGaussianBlur><feComponentTransfer><feFuncA type="linear" slope="0.8" intercept="-.01"></feFuncA></feComponentTransfer><feOffset dy="1" result="x1"></feOffset><feGaussianBlur in="SourceGraphic" stdDeviation="2"></feGaussianBlur><feComponentTransfer><feFuncA type="linear" slope="0.7" intercept="-.01"></feFuncA></feComponentTransfer><feOffset dy="2" result="x2"></feOffset><feGaussianBlur in="SourceGraphic" stdDeviation="3"></feGaussianBlur><feComponentTransfer><feFuncA type="linear" slope="0.6" intercept="-.01"></feFuncA></feComponentTransfer><feOffset dy="3" result="x3"></feOffset><feMerge><feMergeNode in="shadow"></feMergeNode><feMergeNode in="offset"></feMergeNode><feMergeNode in="x3"></feMergeNode><feMergeNode in="x2"></feMergeNode><feMergeNode in="x1"></feMergeNode><feMergeNode in="x0"></feMergeNode></feMerge></filter></defs><g filter="url(#editing-cake)"><g transform="translate(186.06688928604126, 101.19000053405762)"><path d="M34.19-44.06L34.19-44.06L34.81-44.06L34.81-44.06Q35.50-44.06 35.50-42.44L35.50-42.44L35.63-42.25L35.69-42.19L35.75-41.94L35.81-41.94L35.81-41.94Q35.25-40.19 34-40.19L34-40.19L34-40.19Q34-39.88 31.75-39.81L31.75-39.81L31.63-39.63L31.63-39.63Q33.44-16.25 33.44-8.69L33.44-8.69L33.63-2.63L33.63-2.63Q33.63-0.31 32.75-0.31L32.75-0.31L32.75-0.31Q32.44-0.25 30.94-0.25L30.94-0.25L28.94-0.25L28.94-0.25Q27.38-0.25 27.38-0.88L27.38-0.88L27.38-0.88Q27.31-2.06 25.75-4.69L25.75-4.69L25.75-4.69Q24.94-9.06 23.75-10.69L23.75-10.69L23.75-10.69Q23.75-10.88 22.81-11.94L22.81-11.94L22.81-11.94Q19.56-17.38 16.75-23.06L16.75-23.06L16.75-23.06Q16.19-23.75 14.06-28.25L14.06-28.25L14.06-28.25Q12.25-31.50 10.31-33.94L10.31-33.94L10.06-33.94L10.06-32.38L10.06-32.38Q10.06-30.50 10.44-24.63L10.44-24.63L10.44-24.63Q10.44-20.25 9.44-10.88L9.44-10.88L9.44-10L9.81-8.69L9.63-4.19L9.94-2.56L9.63-1.31L9.63-1.06L9.44-1.06L9.44-1.06Q9.13-1.38 8.81-1.38L8.81-1.38L8.44-1.38L8.44-1.31L8.44-1.31Q8.69-0.88 8.69-0.56L8.69-0.56L8.69-0.25L8.69-0.25Q9.13-0.25 9.31-0.56L9.31-0.56L9.31-0.56Q9.69-0.38 9.69-0.06L9.69-0.06L9.69-0.06Q9.69 1 8.81 1L8.81 1L3.50 1.13L3.50 1.13Q1.75 0.88 1.75-0.31L1.75-0.31L1.75-0.31Q1.44-2.50 1.19-3.44L1.19-3.44L1.19-3.44Q1.19-3.75 4.19-4.94L4.19-4.94L4.25-5L4.25-7.06L4.25-7.06Q4.25-7.81 4.63-8.13L4.63-8.13L4.63-8.31L4.63-8.31Q4.19-8.31 4.19-12.44L4.19-12.44L4.19-13.19L4.19-13.19Q5.50-25.25 5.50-41.63L5.50-41.63L5.50-41.63Q5.56-43.56 5.88-43.56L5.88-43.56L5.88-43.56Q5.88-43.81 8.44-43.94L8.44-43.94L9.13-43.94L9.13-43.94Q10.44-43.94 12.69-40.06L12.69-40.06L12.69-40.06Q15.31-36.69 16.38-35.19L16.38-35.19L19.06-30.69L19.06-30.69Q22.13-27.13 24.13-20.94L24.13-20.94L24.13-20.94Q26.13-16.63 26.69-16.63L26.69-16.63L26.69-16.63Q27.50-17.44 27.50-19.13L27.50-19.13L27.38-21.69L27.56-30.38L27.56-30.38Q27.19-32.88 27.19-34.06L27.19-34.06L27.19-34.31L27.19-34.31Q27.19-37.88 27.63-39.19L27.63-39.19L27.63-39.19Q27.63-39.69 24.38-39.69L24.38-39.69L24.19-39.94L24.19-42L24.19-42Q24.19-44 25.94-44L25.94-44L25.94-44Q30.69-44.06 34.19-44.06ZM34.81-43.31L34.75-43.38L34.06-43.38L34.06-43.19L34.56-43.06L34.63-43.06L34.81-43.31ZM9.13-43.06L8.69-43.06L8.50-43L8.50-43Q8.69-42.19 9.31-42.19L9.31-42.19L9.44-42.38L9.44-42.81L9.13-43.06ZM32.88-41.50L32.88-41.75L32.63-41.75L32.63-41.50L32.88-41.50ZM26.44-41.19L25.56-41.19L25.44-41L25.69-40.75L25.81-40.75L26.94-40.88L26.94-40.88Q26.81-41.19 26.44-41.19L26.44-41.19ZM28.50-38.63L28.50-38.63L28.50-38.38L28.50-38.38Q28.69-37.94 28.94-37.94L28.94-37.94L29.13-38.13L29.13-39L28.94-39.19L28.88-39.19L28.88-39.19Q28.50-39.13 28.50-38.63ZM8.38-35.13L8.38-35.13L8.44-35L8.50-35L8.50-35Q8.69-35 8.69-36.81L8.69-36.81L8.69-38.38L8.69-38.38Q8.38-38.38 8.38-35.13ZM10.25-37.69L10.19-37.69L10-37.50L10-36.88L10-36.88Q10-36.38 10.44-35.69L10.44-35.69L10.69-35.69L10.69-35.69Q10.38-37.69 10.25-37.69L10.25-37.69ZM13.63-33.19L12.50-34.69L12.38-34.69L12.38-34.56L12.38-34.56Q13.56-31.56 14.50-29.81L14.50-29.81L14.50-29.81Q14.88-29.38 14.88-29.19L14.88-29.19L15.13-29.19L15.13-29.38L15.13-29.38Q14.69-31.69 13.63-33.19L13.63-33.19ZM16.56-31.38L16.56-31.38L16.25-31.38L16.25-31.19L16.25-31.19Q16.50-30.06 17.69-28.63L17.69-28.63L17.88-28.63L17.88-28.63Q17-31.38 16.56-31.38ZM15.88-28.19L15.88-28.19L15.50-28.38L15.44-28.31L15.44-28.25L15.44-28.25Q16.31-25.75 19.25-20.81L19.25-20.81L19.38-20.81L19.38-20.81Q19.19-21.81 15.88-28.19ZM20.69-25.13L20.69-25.13L20.63-25.13L20.63-25.13Q21.31-23.19 22.06-22.31L22.06-22.31L22.19-22.38L22.19-22.38Q21.06-24.94 20.69-25.13ZM22.69-21.50L22.69-21.50L22.56-21.50L22.56-21.38L22.56-21.38Q23-19.44 23.81-18.56L23.81-18.56L23.94-18.56L23.94-18.56Q23.94-18.81 22.69-21.50ZM19.75-19.75L19.75-19.75L19.69-19.69L19.69-19.69Q20.50-17.38 20.88-17.38L20.88-17.38L21.06-17.56L21.06-17.69L21.06-17.69Q21.06-18.06 19.75-19.75ZM6.63-12.94L6.63-12.94L6.69-12.94L6.69-12.94Q7.06-12.94 7.13-15.44L7.13-15.44L7.13-16.06L7-16.06L7-16.06Q6.94-16.06 6.63-12.94ZM23.19-13.81L23.19-14.06L22.88-14.06L22.88-13.63L23.63-12.69L23.75-12.69L23.75-13.38L23.19-13.81ZM29.81-11.88L29.81-11.88L29.81-11.88Q29.81-10.94 30.06-10.94L30.06-10.94L30.06-10.94Q30.31-11 30.31-11.50L30.31-11.50L30.25-13.19L30.13-13.19L30.13-13.19Q29.88-13.19 29.81-11.88ZM6.19-11.25L6.19-11.25L6.19-10.38L6.44-10.38L6.44-10.38Q6.63-10.38 6.81-11.38L6.81-11.38L6.81-11.38Q6.75-11.94 6.50-11.94L6.50-11.94L6.50-11.94Q6.19-11.81 6.19-11.25ZM31.69-7.56L31.69-7.81L31.50-7.81L31.50-7.56L31.69-7.56ZM26.06-7L26.06-7L25.81-7L25.81-7Q25.81-6.44 26.69-5.75L26.69-5.75L26.69-5.81L26.69-5.81Q26.69-6 26.06-7ZM29.81-5.88L29.56-6L29.50-6L29.50-5.88L29.56-5.75L29.81-5.75L29.81-5.88ZM6.81-5.06L6.50-5.31L6.44-5.31L6.44-5L6.50-4.81L6.63-4.81L6.81-5L6.81-5.06ZM27.38-4.06L27.31-4.44L27.13-4.44L27.13-4.31L27.31-4.06L27.38-4.06ZM4.25-4L3.50-4L3.13-3.81L3.13-3.63L4.25-3.63L4.38-3.69L4.38-3.81L4.25-4ZM33.06-3.06L32.88-3.38L32.75-3.38L32.75-3.06L32.94-2.81L33.06-2.81L33.06-3.06ZM6.44-2.50L6.31-2.50L6.06-2.25L6.06-2.13L6.19-2.13L6.44-2.38L6.44-2.50ZM2.19-2L2.19-2L2.19-2Q2.38-1.69 2.75-1.69L2.75-1.69L2.94-1.69L3.69-1.88L3.69-2.13L2.75-2.25L2.75-2.25Q2.19-2.13 2.19-2ZM31.50-1.88L31.69-2L31.50-2L31.50-1.88ZM4.13-0.13L3.38-0.13L3.25 0.06L3.25 0.06Q3.31 0.31 3.69 0.31L3.69 0.31L3.69 0.31Q4.25 0.25 4.25 0.06L4.25 0.06L4.13-0.13ZM53.13-29.56L53.13-29.56L54.88-29.06L55.44-29.06L55.44-29.06Q59-27.31 62.06-24.88L62.06-24.88L62.06-24.88Q65.25-22.13 65.25-20.75L65.25-20.75L65.13-20.75L65.13-20.75Q64.63-21.63 64.13-21.63L64.13-21.63L64.06-21.63L64.06-21.63Q63.88-21.63 63.88-21.38L63.88-21.38L63.88-21.38Q64.13-20.69 65-19L65-19L65.13-19L65.13-19Q65.25-19 65.44-19.63L65.44-19.63L65.50-19.63L65.50-19.63Q65.69-19.56 65.94-17.81L65.94-17.81L66.50-16.56L66.38-15.75L66.56-13.50L66.56-13.50Q66.13-11.94 65.75-9.38L65.75-9.38L65.75-9.38Q65.50-8.19 59.94-0.50L59.94-0.50L59.94-0.50Q57.44 1.88 55.06 1.88L55.06 1.88L55.06 1.88Q52.88 2.13 50.13 2.13L50.13 2.13L48.94 2.13L48.94 2.13Q47.88 2.13 43.38 0.31L43.38 0.31L43.38 0.31Q37.69-4.75 37.69-7.44L37.69-7.44L37.69-7.44Q36.88-9.13 36.31-10.56L36.31-10.56L36.31-10.56Q36.31-11.38 38-15.94L38-15.94L38-15.94Q38-18.81 39.38-19.94L39.38-19.94L39.38-19.94Q42.31-26.25 46.81-28.13L46.81-28.13L46.81-28.13Q50.75-29.56 53.13-29.56ZM41.88-9.94L41.88-9.94L41.88-9.56L41.88-9.56Q42.75-7.88 43.81-5.94L43.81-5.94L43.81-5.94Q43.81-5.31 46.19-4.19L46.19-4.19L46.19-4.19Q47.31-2.88 50.38-2.13L50.38-2.13L51.50-2L51.50-2Q54.25-2.56 55.63-3.19L55.63-3.19L57.88-5.06L57.88-5.06Q61.38-8.81 61.25-11.38L61.25-11.38L61.25-11.94L61.25-11.94Q60.88-12.94 60.88-15.19L60.88-15.19L60.88-15.19Q60.88-16.94 61.13-17.94L61.13-17.94L61.13-17.94Q61.13-18.38 58.69-20.13L58.69-20.13L58.69-20.13Q56.94-22.63 55.06-23.19L55.06-23.19L54.31-23.19L54.31-23.19Q47-22.88 47-22L47-22L47-22Q45.38-20.38 44.75-18.81L44.75-18.81L44.75-18.81Q42.75-16.69 42.75-16L42.75-16L42.75-16Q42.19-13.44 41.88-9.94ZM43.81-25.06L43.81-25.06L43.63-24.75L43.63-24.50L43.63-24.50Q44-24.50 47.44-27.13L47.44-27.13L47.94-27.31L48.31-27.25L48.31-27.25Q52.50-27.69 52.50-28.06L52.50-28.06L52.50-28.13L51.50-28.31L51.50-28.31Q47.25-28.31 43.81-25.06ZM48.69-23.75L48.69-23.75L48.69-23.69L48.81-23.50L49.69-23.50L54.13-24.50L54.13-24.63L52.94-24.88L52.94-24.88Q48.69-24.38 48.69-23.75ZM38.88-8.19L38.88-8.19L38.63-8L38.63-7.56L38.63-7.56Q38.75-5.44 39.81-5.19L39.81-5.19L39.88-5.25L39.88-5.31L39.88-5.31Q39.44-8.19 38.88-8.19ZM48.56-25.88L48.56-25.88L48.56-25.56L48.56-25.56Q53.44-26.13 53.44-26.31L53.44-26.31L52.94-26.50L52.88-26.50L52.88-26.50Q49.88-26.50 48.56-25.88ZM53.88-28.25L53.88-28.25L53.88-28.25Q54.19-27.38 55.25-27.38L55.25-27.38L55.88-27.31L56-27.38L56-27.69L56-27.69Q56-28.38 54.69-28.50L54.69-28.50L54.69-28.50Q53.88-28.44 53.88-28.25ZM42.50-1.88L42.50-1.88L42.06-1.88L42.06-1.63L42.06-1.63Q42.88-0.81 45-0.81L45-0.81L45.69-0.81L45.69-0.81Q45.38-1.25 42.50-1.88ZM52.81 0.44L52.81 0.44L52.81 0.56L52.81 0.56Q52.81 0.75 53.75 0.88L53.75 0.88L53.75 0.88Q54.81 0.88 54.81 0.56L54.81 0.56L54.81 0.44L54.81 0.44Q54.75 0.19 54.38-0.06L54.38-0.06L53.81-0.06L53.81-0.06Q53.13-0.06 52.81 0.44ZM64.69-11.44L64.69-11.44L64.69-11.44Q64.75-9.56 65-9.44L65-9.44L65.13-9.44L65.13-9.44Q65.13-10.13 65.69-10.94L65.69-10.94L65.69-11.13L65-12.06L64.88-12.06L64.88-12.06Q64.75-12.06 64.69-11.44ZM60.56-22.19L60.56-22.19L60.31-22.19L60.31-22.19Q60.69-21.38 62.13-20.81L62.13-20.81L62.38-20.81L62.56-21L62.56-21.06L62.56-21.06Q61.50-22.19 60.56-22.19ZM59.19-24.13L59.19-24.13L59.19-24L59.19-24Q59.38-23.25 60.94-22.44L60.94-22.44L61.13-22.44L61.25-22.63L61.25-22.69L61.25-22.69Q60.94-23.13 59.19-24.13ZM55.06-26.19L55.06-26.19L54.94-26.13L54.94-26.13Q56.13-25.19 56.81-25.19L56.81-25.19L56.88-25.31L56.88-25.38L56.88-25.38Q55.88-26.19 55.06-26.19ZM46.75-1.06L46.75-1.06L46.75-0.88L46.75-0.88Q46.75-0.50 48.50-0.50L48.50-0.50L48.56-0.56L48.56-0.69L48.56-0.69Q47.75-1.06 46.75-1.06ZM58.38-26.88L58.25-26.88L58.06-26.69L58.06-26.69Q58.75-25.81 59.44-25.81L59.44-25.81L59.44-25.81Q59.44-26.50 58.38-26.88L58.38-26.88ZM43-20.44L43-20.44L43-20L43.19-20L43.19-20Q44-20.75 44-21.19L44-21.19L44-21.25L43.69-21.25L43.69-21.25Q43.31-21 43-20.44ZM57.13-23.31L57.13-23.31L57.13-23.31Q57.50-22.69 58-22.69L58-22.69L58.06-22.81L58.06-22.94L58.06-22.94Q58.06-23.50 57.56-23.50L57.56-23.50L57.56-23.50Q57.13-23.44 57.13-23.31ZM63.19-6.88L63.19-6.88L63.19-6.81L63.19-6.81Q63.69-6.81 64.06-7.81L64.06-7.81L64.06-7.94L63.88-7.94L63.88-7.94Q63.50-7.94 63.19-6.88ZM44.31-23.69L44.31-23.69L44.31-23.69Q44.88-23.69 45.38-24.44L45.38-24.44L45.38-24.63L45.38-24.63Q44.31-24.31 44.31-23.69ZM64.25-9.13L64.19-8L64.50-8L64.75-7.81L64.75-7.81Q64.81-8.81 64.44-8.69L64.44-8.69L64.31-8.69L64.25-9.13ZM56.19 0.88L56.19 0.88L56.25 0.88L56.25 0.88Q57.38 0.50 57.38 0.25L57.38 0.25L57.25 0.13L57.25 0.13Q56.38 0.44 56.19 0.88ZM41.19-4.06L41.19-4.06L40.94-3.94L40.94-3.81L41.44-3.31L41.69-3.31L41.69-3.31Q41.69-3.75 41.19-4.06ZM45.44-0.19L45.44-0.19L45.44-0.13L46.25-0.13L46.38-0.25L46.25-0.44L46.13-0.44L46.13-0.44Q45.50-0.44 45.44-0.19ZM65.75-15.88L65.69-15.88L65.50-15.69L65.50-15.44L65.69-15.19L65.94-15.44L65.94-15.69L65.75-15.88ZM39.25-17.88L39.25-17.88L39.25-17.88Q39.56-17.88 39.81-18.31L39.81-18.31L39.81-18.44L39.81-18.44Q39.25-18.44 39.25-17.88ZM37.38-11.13L37.31-11.13L37.19-10.94L37.19-10.94Q37.25-10.38 37.38-10.38L37.38-10.38L37.50-10.44L37.50-10.75L37.38-11.13ZM54-25.56L54-25.56L54-25.50L54.63-26L54.50-26.06L54.50-26.06Q53.88-25.69 54-25.56ZM40.50-20L40.50-20L40.56-20L40.56-20Q40.81-20.06 40.81-20.50L40.81-20.50L40.69-20.50L40.69-20.50Q40.50-20.38 40.50-20ZM40.94-12.50L40.88-12.50L40.63-12.25L40.63-12.13L40.81-12.13L40.94-12.31L40.94-12.50ZM44.56-21.81L44.56-21.94L44.31-21.94L44.31-21.69L44.44-21.69L44.56-21.81ZM81.88-50.25L81.88-50.25L81.88-50.25Q83.25-50.25 84.13-49.50L84.13-49.50L84.13-49.50Q83.38-47.50 83.13-43.19L83.13-43.19L82.56-37.44L82.56-37.44Q82.56-37 85.06-37L85.06-37L85.06-37Q92.44-37 92.44-36.31L92.44-36.31L92.44-36.31Q92.75-36.31 93.19-35.94L93.19-35.94L93.19-35.94Q92.56-35.13 92.56-34.75L92.56-34.75L92.56-34.56L92.75-33.31L91.94-30.56L91.94-30.56Q91.94-30.13 92.88-29.31L92.88-29.31L92.88-29.19L92.88-29.19Q91.38-28.69 90.44-28.69L90.44-28.69L90.44-28.69Q89.44-28.75 89.44-29L89.44-29L89.44-29.13L90-29.19L90.44-29.19L90.69-29.44L90.69-29.56L90.44-29.63L86.25-29.56L82.81-29.63L82.81-29.63Q82.50-29.63 82.13-26.13L82.13-26.13L82.06-26.13L81.19-27.13L81-26.44L81-26.06L81-26.06Q81.06-24.31 81.44-24.19L81.44-24.19L81.44-24.19Q81.69-24.19 81.88-25.31L81.88-25.31L81.88-25.75L82.06-25.75L82.13-25.56L81.69-19.56L81.69-19.56Q82.44-6.63 83-6.63L83-6.63L83-6.63Q83.31-4.63 84.56-4.63L84.56-4.63L84.56-4.63Q85.25-4.19 86.25-4.19L86.25-4.19L87.38-4.19L91.13-4.38L91.13-4.38Q91.25-4.38 91.56-1.06L91.56-1.06L91.56-1.06Q91.69-0.06 91.16 0.41L91.16 0.41L91.16 0.41Q90.63 0.88 89.38 0.88L89.38 0.88L84.56 1L84.56 1Q80.63 1 77.94-1.19L77.94-1.19L77.94-1.19Q76.19-1.81 76.19-4.94L76.19-4.94L76.19-4.94Q76.06-6.63 75.75-14.94L75.75-14.94L76.50-23.44L76.69-27.13L76.69-27.63L76.69-27.63Q76.25-30.25 75.19-30.25L75.19-30.25L73.31-30.25L71.13-30.25L71.13-30.25Q70.19-30.25 69.25-29.81L69.25-29.81L69.25-29.81Q68.63-29.88 67.69-31.50L67.69-31.50L68.94-37.06L68.94-37.06Q68.94-37.31 76.50-37.38L76.50-37.38L76.50-37.38Q76.50-38.19 77.38-39.44L77.38-39.44L77.38-39.44Q77.63-49.19 78.06-49.19L78.06-49.19L78.06-49.38L78.06-49.38Q78.06-49.50 77.75-49.50L77.75-49.50L77.75-49.69L77.75-49.69Q77.75-49.88 81.88-50.25ZM79.63-48.44L79.50-48.56L79.44-48.56L79.44-48.19L79.63-48.19L79.63-48.44ZM82.81-48.44L82.19-48.44L81.94-48.19L81.94-48.06L82.13-46.63L82.25-46.63L82.25-46.63Q83-47.38 83-47.94L83-47.94L83-48.19L82.81-48.44ZM79.94-45.50L79.94-46.13L79.75-46.31L79.75-46.31Q79.63-45.69 79.63-44.69L79.63-44.69L79.63-44.44L79.75-44.44L79.94-45.50ZM80.13-43.50L80.13-43.50L80-43.50L79.75-37.31L79.75-37.25L79.94-37.06L80.06-37.06L80.06-37.06Q80.50-37.06 80.50-38.63L80.50-38.63L80.50-40.06L80.38-43.13L80.38-43.13Q80.25-43.50 80.13-43.50ZM69.31-36.31L69.31-36.31L69.31-36.31Q69.31-35.88 69.88-35.88L69.88-35.88L70.81-35.88L70.81-35.88Q73.38-35.88 75.56-36.13L75.56-36.13L75.56-36.25L75.56-36.25Q75.56-36.56 72.50-36.56L72.50-36.56L69.88-36.56L69.88-36.56Q69.31-36.56 69.31-36.31ZM89.44-36.56L88.81-36.56L88-36.25L87.25-36.25L86.19-36.25L86.19-36.06L86.19-36.06Q87.56-35.69 88.56-35.69L88.56-35.69L90-35.69L90-35.69Q90.13-35.69 90.13-35.88L90.13-35.88L90.13-35.88Q90-36.56 89.44-36.56L89.44-36.56ZM91.25-35.94L90.56-35.94L90.38-35.81L90.38-35.69L90.56-35.63L90.56-35.63Q91.19-35.63 91.25-35.88L91.25-35.88L91.25-35.94ZM71-35.13L70.31-35.13L70.19-35L70.19-34.63L70.19-34.63Q70.19-34 74.38-34L74.38-34L74.38-34Q76.50-34 76.50-34.31L76.50-34.31L76.50-34.31Q76.50-35.06 71-35.13L71-35.13ZM84.06-34.56L83.63-34.56L83.44-34.38L83.44-34.31L83.44-34.31Q83.44-34 85.69-33.94L85.69-33.94L86.75-34L88.19-33.75L88.44-33.75L88.44-33.75Q88.88-33.75 88.88-34.13L88.88-34.13L88.81-34.13L84.06-34.56ZM91.19-33.19L90.38-33.19L90.13-32.94L90.13-32.88L90.38-32.69L90.69-32.69L90.69-32.69Q91.25-32.69 91.38-33.06L91.38-33.06L91.19-33.19ZM71.44-32.94L70.88-32.94L70.63-32.75L70.63-32.75Q70.63-32.50 70.94-32.50L70.94-32.50L72.50-32.44L74.19-32.50L74.25-32.56L74.25-32.69L74.25-32.69Q73.50-32.94 71.44-32.94L71.44-32.94ZM75.88-31.56L75.75-31.75L70.63-31.94L70.63-31.81L70.63-31.81Q70.63-31.38 75.38-31.38L75.38-31.38L75.88-31.50L75.88-31.56ZM84.69-31.56L84.69-31.56L84.38-31.56L84.38-31.38L84.38-31.38Q84.44-31.25 86.56-30.75L86.56-30.75L86.69-30.75L86.69-30.88L86.69-30.88Q85.69-31.56 84.69-31.56ZM87.88-30.94L87.88-30.94L87.88-30.94Q89.56-30.38 90.88-30.38L90.88-30.38L91.13-30.63L91.13-31L90.94-31.19L89.56-31.19L89.56-31.19Q87.88-31.19 87.88-30.94ZM79.19-28.69L79.19-28.69L79.19-28.19L79.38-28L79.38-28Q79.63-28.06 79.63-28.44L79.63-28.44L79.63-28.69L79.50-29.13L79.44-29.13L79.44-29.13Q79.19-29.06 79.19-28.69ZM81.50-27.38L81.50-27.56L81.19-27.81L81.19-27.63L81.44-27.38L81.50-27.38ZM79.63-27.31L79.50-27.44L79.38-27.44L79.31-27.13L79.31-26.81L79.38-26.44L79.63-26.44L79.63-27L79.63-27.31ZM79.75-22.63L79.63-23.13L79.44-23.13L79.44-22.63L79.63-22.38L79.75-22.38L79.75-22.63ZM76.63-15.19L76.63-15.19L76.81-13.44L76.75-11.25L76.81-10.63L77-10.63L77-10.63Q77.38-10.63 77.38-13.56L77.38-13.56L77.38-15L77.38-15Q77.38-17.88 77.13-17.88L77.13-17.88L77.13-17.88Q76.69-17.88 76.63-15.19ZM80.69-10.25L80.69-10.25L80.56-10.25L80.50-9.81L80.50-9.31L80.50-9.31Q80.50-8.88 80.75-8.81L80.75-8.81L80.88-8.81L80.88-8.81Q81.13-8.88 81.13-9.25L81.13-9.25L81.13-9.25Q81.06-10.25 80.69-10.25ZM81.19-7.56L81.19-7.56L80.94-6.88L80.94-6.88Q80.94-5.44 81.56-5.06L81.56-5.06L81.69-5.31L81.69-5.88L81.69-5.88Q81.63-7.44 81.19-7.56ZM78.88-7L78.75-7.13L78.56-7.13L78.56-6.19L78.69-5.81L78.75-5.81L78.88-5.94L78.88-7ZM80.56-3.19L80.56-3.19L80.56-3.13L80.56-2.75L80.56-2.75Q80.63-2.50 81-2.25L81-2.25L81.44-2.25L81.44-2.38L81.44-2.38Q81.44-3.06 80.56-3.19ZM87.50-1.94L87.50-1.94L87.75-1.94L87.75-1.94Q90.06-2.31 90.06-2.75L90.06-2.75L89.94-2.88L89.94-2.88Q87.50-2.25 87.50-1.94ZM79.88-1.69L79-2.81L78.88-2.81L78.88-2.56L78.88-2.56Q79.06-1 80.25-1L80.25-1L80.88-1L81-1.19L81-1.25L81-1.25Q81-1.38 79.88-1.69L79.88-1.69ZM111.25-31.38L111.25-31.38L111.25-31.38Q113.88-31.38 117.63-29.13L117.63-29.13L117.63-29.13Q120.81-26.75 120.81-25.88L120.81-25.88L120.81-25.88Q123.31-20.63 123.31-19.56L123.31-19.56L123.38-19.06L123.38-19.06Q122.44-16.88 122.44-16.06L122.44-16.06L122.06-16L116.75-16L116.75-16Q116-16 114.94-15.81L114.94-15.81L114.94-15.81Q105.94-16.56 102.31-16.56L102.31-16.56L101-16.56L101-16.56Q100.25-15.44 100.25-14.94L100.25-14.94L100.25-14.94Q100.69-14.25 100.69-12.75L100.69-12.75L100.69-12.75Q100.69-10.38 101.44-9.94L101.44-9.94L101.50-9.63L101.50-9.56L101.13-9.75L101.13-9.56L101.69-8.94L101.69-8.94Q101.69-8.13 102.81-6.88L102.81-6.88L102.81-6.88Q104.88-3.25 107.31-2.38L107.31-2.38L107.31-2.38Q109.38-1.69 112-1.69L112-1.69L112-1.69Q112.44-1.69 113.81-2.50L113.81-2.50L113.81-2.50Q114.94-2.75 118.56-6.56L118.56-6.56L118.56-6.75L118.56-6.75Q118.56-6.88 117.69-7L117.69-7L117.56-7.31L117.56-7.31Q119-10.06 121-10.94L121-10.94L121-10.94Q121.56-10.38 123.31-9.19L123.31-9.19L123.31-9.19Q124.69-7.06 127-4.19L127-4.19L127-3.94L127-3.94Q125-1.31 124.13-1.31L124.13-1.31L123.88-1.31L123.88-1.31Q123.88-2.69 122.19-2.88L122.19-2.88L122.19-2.88Q121.88-2.88 119.44-0.81L119.44-0.81L119.44-0.81Q118 0.31 114.50 1.31L114.50 1.31L114.50 1.31Q110.44 2.13 108.75 2.13L108.75 2.13L105.19 0.88L105.19 0.88Q102.19 0.88 99.69-2.38L99.69-2.38L99.69-2.38Q98.63-3.50 97.94-5.06L97.94-5.06L97.94-5.06Q97.94-5.56 96.56-10.25L96.56-10.25L96.56-10.25Q96.13-12.06 96.13-13.75L96.13-13.75L96.13-13.81L96.13-13.81Q96.13-22.13 101.13-28.38L101.13-28.38L101.13-28.38Q101.75-29.94 104-30.69L104-30.69L104-30.69Q105.50-31.13 107.63-31.38L107.63-31.38L107.63-31.38Q108.19-31.63 111.25-31.38ZM105.63-30.19L105.50-30.06L105.50-30L105.63-30L105.63-30Q106.63-30 109.38-30.69L109.38-30.69L109.38-30.69Q109.94-30.75 109.94-31L109.94-31L109.75-31.19L109.69-31.19L109.69-31.19Q107.88-31.19 105.63-30.19L105.63-30.19ZM103-29L103-29L103-28.94L103.19-28.81L103.25-28.81L103.25-28.81Q104.50-29.13 104.50-29.44L104.50-29.44L104.50-29.81L104.25-30.06L104.13-30.06L104.13-30.06Q103-29.69 103-29ZM112.63-29.63L112.63-29.63L110.75-29.63L110.75-29.50L110.75-29.50Q110.75-29.25 113.31-29.13L113.31-29.13L113.38-29.13L113.38-29.38L113.38-29.38Q113.38-29.50 112.63-29.63ZM108.19-28.69L108.19-28.69L108.19-28.63L108.19-28.63Q108.19-28.38 110.75-28L110.75-28L110.88-28.06L110.88-28.31L110.88-28.31Q110.38-29 109.19-29L109.19-29L109-29L109-29Q108.19-28.94 108.19-28.69ZM112-28.31L112-28.31L112-28.25L112-28.25Q115.56-26.19 115.81-26.19L115.81-26.19L115.88-26.19L116.50-26.44L116.88-26.31L116.94-26.44L116.94-26.50L116.94-26.50Q116.69-26.69 115.88-26.88L115.88-26.88L114.63-27.44L114.63-27.44Q114.13-28.50 112.63-28.50L112.63-28.50L112.44-28.50L112.44-28.50Q112-28.44 112-28.31ZM104.56-26.50L104.56-26.50L104.56-26.50Q105.19-27 107.06-27.56L107.06-27.56L107.06-27.69L107-27.81L106.38-27.81L106.38-27.81Q104.56-27.31 104.56-26.50ZM101.25-22.38L101.25-22.38L101.25-22.19L101.25-22.19Q101.25-21.50 112.63-20.63L112.63-20.63L113.25-20.44L114.06-20.50L114.06-20.50Q116.56-19.69 117.44-19.69L117.44-19.69L117.44-19.69Q117.44-19.50 117.81-19.38L117.81-19.38L117.81-19.38Q118.19-19.94 118.19-20.44L118.19-20.44L118.19-21.63L118.19-21.63Q118.19-22.44 115.06-25.25L115.06-25.25L115.06-25.25Q113.63-26.69 111.81-26.88L111.81-26.88L109.69-27.25L109.69-27.25Q104.50-26.19 102.88-24.69L102.88-24.69L102.88-24.69Q102.19-23.38 101.25-22.38ZM101.94-26.13L101.94-26.13L101.94-26L102.06-26L102.06-26Q102.88-26.19 102.88-26.44L102.88-26.44L102.88-26.50L102.56-26.50L102.56-26.50Q102.25-26.50 101.94-26.13ZM116.88-25.25L116.88-25.25L116.88-25.25Q117-24.75 117.44-24.75L117.44-24.75L117.56-24.75L117.69-24.94L117.69-25.31L117.44-25.63L117.44-25.63Q116.88-25.63 116.88-25.25ZM101-24.94L100.75-24.94L100.63-24.75L100.63-24.69L100.75-24.69L101-24.88L101-24.94ZM118.56-24.31L118.44-24.44L118.19-24.44L118.19-24.44Q118.88-22.38 119.19-22.19L119.19-22.19L119.44-22.19L119.63-22.31L119.63-22.31Q119.13-24.31 118.56-24.31L118.56-24.31ZM101.31-23.31L101.31-23.31L101.31-23.31Q101.69-23.38 101.69-23.81L101.69-23.81L101.69-23.88L101.69-23.88Q101.31-23.75 101.31-23.31ZM120.75-21.63L120.56-21.63L120.38-21.50L120.38-21.06L120.56-20.81L120.56-20.81Q120.81-20.88 120.81-21.25L120.81-21.25L120.81-21.50L120.75-21.63ZM100.63-20.75L100.63-20.75L100.63-20.50L100.75-20.38L100.88-20.38L100.88-20.38Q101.31-20.56 101.63-21.06L101.63-21.06L101.63-21.25L101.31-21.25L101.31-21.25Q100.94-21.25 100.63-20.75ZM98.06-21.13L98.06-21.13L98.06-21.13Q97.56-20.63 97.19-18.63L97.19-18.63L97.31-18.63L97.31-18.63Q97.69-18.63 98.44-20.81L98.44-20.81L98.44-20.81Q98.31-21.13 98.06-21.13ZM104.44-20.38L104.44-20.38L104.44-20.19L104.44-20.19Q105.63-19.38 108.75-19.38L108.75-19.38L109.31-19.38L110.13-19.44L110.13-19.69L110.13-19.69Q107.56-20.25 104.44-20.38ZM115.88-18.56L115.88-18.75L115.69-18.75L115.69-18.56L115.88-18.56ZM103.81-18.25L103.81-18.25L103.81-18.13L103.81-18.13Q105.06-17.81 110.44-17.50L110.44-17.50L110.44-17.44L110.44-17.38L109.13-17.19L109.13-17.19Q109.13-17 110.75-17L110.75-17L110.75-17Q113.38-17 113.38-17.25L113.38-17.25L113.38-17.25Q113.38-17.88 103.81-18.25ZM97.75-17.69L97.50-17.81L97.19-17.81L97.19-17.44L97.19-17.44Q97.19-17.06 97.38-17.06L97.38-17.06L97.38-17.06Q97.69-17.06 97.75-17.69L97.75-17.69ZM102.56-17.63L102.56-17.69L102.25-17.63L102.25-17.25L102.56-17.25L102.56-17.50L102.56-17.63ZM100.56-17.19L100.56-17.19L100.56-17.13L100.63-17.13L101.69-17.25L101.69-17.38L101.50-17.63L101.31-17.63L101.31-17.63Q100.75-17.63 100.56-17.19ZM115.75-17.06L115.75-17.06L115.75-17.06Q115.75-16.81 116.88-16.81L116.88-16.81L117.44-16.88L117.44-17L117.44-17Q117.44-17.25 116.25-17.25L116.25-17.25L116.25-17.25Q115.75-17.13 115.75-17.06ZM97.19-15.44L97.19-15.44L97.19-15.25L97.19-15.19L97.19-15.19Q97.13-15 97.13-14.31L97.13-14.31L97.13-14.06L97.13-14.06Q97.13-12.94 97.75-12.06L97.75-12.06L97.81-12.06L97.81-12.06Q97.81-15.06 97.19-15.44ZM98.44-9.88L98.31-10L98.13-10L98.13-9.88L98.31-9.75L98.44-9.75L98.44-9.88ZM98.75-8.94L98.75-8.94L98.69-8.88L98.69-8.75L98.69-8.75Q98.94-7.75 99.44-7.75L99.44-7.75L99.44-7.81L99.44-7.94L99.44-7.94Q99.44-8.44 98.75-8.94ZM119.13-8.38L119.13-8.38L119.25-8.19L119.56-8.19L119.56-8.19Q119.94-8.19 120-8.44L120-8.44L119.75-8.69L119.69-8.69L119.69-8.69Q119.25-8.69 119.13-8.38ZM117.69-4.75L117.69-4.75L117.81-4.69L117.88-4.69L117.88-4.69Q118.56-4.69 118.75-5.50L118.75-5.50L118.75-5.63L118.75-5.63Q118.06-5.63 117.69-4.75ZM122.06-4.88L122.06-4.88L122.13-4.81L122.31-4.81L122.31-4.81Q122.69-5.06 122.69-5.50L122.69-5.50L122.50-5.50L122.50-5.50Q122.06-5.25 122.06-4.88ZM124.25-5.50L124.25-5.50L124.19-5.50L124.19-5.38L124.19-5.38Q124.38-4.63 124.75-4.63L124.75-4.63L124.81-4.63L124.94-4.75L124.94-4.81L124.94-4.81Q124.81-5.50 124.25-5.50ZM120.63-4.19L120.63-4.19L120.81-4.06L120.81-4.06Q121.75-4.38 121.75-4.88L121.75-4.88L121.75-5L121.69-5L121.69-5Q120.81-5 120.63-4.19ZM115.75-2.81L115.75-2.81L115.88-2.81L115.88-2.81Q116.38-3 116.44-3.44L116.44-3.44L116.38-3.50L116.38-3.50Q115.75-3.13 115.75-2.81ZM119.44-2.50L119.44-2.50L119.69-2.50L119.69-2.50Q120.31-3.06 120.31-3.31L120.31-3.31L120.25-3.31L120.25-3.31Q119.44-3.06 119.44-2.50ZM101.69-1.94L101.69-1.94L101.50-1.94L101.50-1.69L101.50-1.69Q101.63-1.38 102.56-1L102.56-1L102.81-0.81L102.81-0.81Q102.13-1.88 101.69-1.94ZM106.06-1.69L106.06-1.69L106-1.69L106-1.63L106-1.63Q106-1.38 107.31-1.06L107.31-1.06L107.38-1.13L107.38-1.25L107.38-1.25Q106.56-1.69 106.06-1.69ZM109.75-0.81L109.75-1L109.56-1L109.56-0.81L109.75-0.81ZM116.25-0.06L116.25-0.06L116.25-0.06Q116.88-0.06 117.25-1L117.25-1L117.06-1L117.06-1Q116.25-0.56 116.25-0.06ZM111.88 0.56L111.88 0.56L110.56 0.44L110.31 0.44L110.31 0.44Q109.75 0.44 109.69 0.69L109.69 0.69L109.69 0.81L109.94 1L111.06 1L111.06 1Q113 1 115.63 0.31L115.63 0.31L115.63 0.31Q115.50-0.06 114.88-0.06L114.88-0.06L114.56-0.06L114.56-0.06Q113.06-0.06 111.88 0.56Z" fill="#ffef00"></path></g></g><style>text {
  font-size: 64px;
  font-family: Arial Black;
  dominant-baseline: central;
  text-anchor: middle;
}</style></svg>