<svg width="206.13916015625px" height="112.39999999999999px" xmlns="http://www.w3.org/2000/svg" viewBox="146.930419921875 18.800000000000004 206.13916015625 112.39999999999999" style="background: none;" preserveAspectRatio="xMidYMid"><defs><linearGradient id="editing-sticker-gradient" x1="0.5" y1="0.2" x2="0.5" y2="0.8"><stop offset="0" stop-color="#fd9"></stop><stop offset="1" stop-color="#9df"></stop></linearGradient><filter id="editing-sticker" x="-100%" y="-100%" width="300%" height="300%"><feMorphology operator="erode" radius="1" in="SourceAlpha" result="alpha-erode"></feMorphology><feConvolveMatrix order="3,3" divisor="1" kernelMatrix="0 1 0 1 1 1 0 1 0" in="alpha-erode" result="alpha-round"></feConvolveMatrix><feMorphology operator="dilate" radius="3.5" in="alpha-round" result="dilate-shadow"></feMorphology><feGaussianBlur in="dilate-shadow" stdDeviation="1.5" result="shadow"></feGaussianBlur><feFlood flood-color="#fff" result="flood-sticker"></feFlood><feComposite operator="in" in="flood-sticker" in2="alpha-round" result="comp-sticker"></feComposite><feMorphology operator="dilate" radius="3" in="comp-sticker" result="morph-sticker"></feMorphology><feConvolveMatrix order="3,3" divisor="1" kernelMatrix="0 1 0 1 1 1 0 1 0" in="morph-sticker" result="sticker"></feConvolveMatrix><feMerge><feMergeNode in="shadow"></feMergeNode><feMergeNode in="sticker"></feMergeNode><feMergeNode in="SourceGraphic"></feMergeNode></feMerge></filter></defs><g filter="url(#editing-sticker)"><g transform="translate(184.808367729187, 99.06499862670898)"><path d="M15.94-2.11L2.62 0.26L7.49-45.18L7.49-45.18Q10.50-45.31 13.15-45.79L13.15-45.79L13.15-45.79Q15.81-46.27 18.43-46.46L18.43-46.46L18.43-46.46Q18.43-46.40 18.24-45.15L18.24-45.15L18.24-45.15Q18.05-43.90 17.73-41.89L17.73-41.89L17.73-41.89Q17.41-39.87 17.02-37.34L17.02-37.34L17.02-37.34Q16.64-34.82 15.90-30.40L15.90-30.40L15.90-30.40Q15.17-25.98 13.95-18.18L13.95-18.18L14.91-18.18L14.91-18.18Q16.58-24.06 17.66-27.81L17.66-27.81L17.66-27.81Q18.75-31.55 19.42-33.89L19.42-33.89L19.42-33.89Q20.10-36.22 20.70-38.40L20.70-38.40L20.70-38.40Q21.31-40.58 21.86-42.43L21.86-42.43L21.86-42.43Q22.40-44.29 22.72-45.57L22.72-45.57L23.30-45.57L23.30-45.57Q24.45-45.57 25.63-45.70L25.63-45.70L25.63-45.70Q26.82-45.82 27.87-45.98L27.87-45.98L27.87-45.98Q28.93-46.14 30.08-46.40L30.08-46.40L30.08-46.40Q29.95-45.82 29.79-44.03L29.79-44.03L29.79-44.03Q29.63-42.24 29.38-39.71L29.38-39.71L29.38-39.71Q29.12-37.18 28.86-34.14L28.86-34.14L28.86-34.14Q28.61-31.10 28.35-28.19L28.35-28.19L28.35-28.19Q28.10-25.28 27.87-22.66L27.87-22.66L27.87-22.66Q27.65-20.03 27.46-18.18L27.46-18.18L28.61-18.18L34.69-45.70L34.69-45.70Q36.86-46.02 38.98-46.27L38.98-46.27L38.98-46.27Q40.83-46.53 42.82-46.78L42.82-46.78L42.82-46.78Q44.80-47.04 46.34-47.36L46.34-47.36L46.34-47.36Q45.38-44.67 44.42-41.38L44.42-41.38L44.42-41.38Q43.46-38.08 42.43-34.43L42.43-34.43L42.43-34.43Q41.41-30.78 40.48-27.07L40.48-27.07L40.48-27.07Q39.55-23.36 38.66-19.90L38.66-19.90L38.66-19.90Q36.61-11.71 34.69-3.07L34.69-3.07L20.22-0.64L23.04-25.34L22.27-25.34L15.94-2.11ZM74.30-34.62L74.30-34.62Q74.30-29.38 73.18-24.74L73.18-24.74L73.18-24.74Q72.06-20.10 70.21-16.22L70.21-16.22L70.21-16.22Q68.35-12.35 65.89-9.31L65.89-9.31L65.89-9.31Q63.42-6.27 60.74-4.13L60.74-4.13L60.74-4.13Q58.05-1.98 55.30-0.86L55.30-0.86L55.30-0.86Q52.54 0.26 50.05 0.26L50.05 0.26L50.05 0.26Q47.94 0.26 46.21-0.54L46.21-0.54L46.21-0.54Q44.48-1.34 43.20-2.91L43.20-2.91L43.20-2.91Q41.92-4.48 41.18-6.94L41.18-6.94L41.18-6.94Q40.45-9.41 40.45-12.86L40.45-12.86L40.45-12.86Q40.45-16.45 41.34-20.42L41.34-20.42L41.34-20.42Q42.24-24.38 43.78-28.29L43.78-28.29L43.78-28.29Q45.31-32.19 47.55-35.71L47.55-35.71L47.55-35.71Q49.79-39.23 52.48-41.95L52.48-41.95L52.48-41.95Q55.17-44.67 58.24-46.27L58.24-46.27L58.24-46.27Q61.31-47.87 64.64-47.87L64.64-47.87L64.64-47.87Q67.52-47.87 69.41-46.69L69.41-46.69L69.41-46.69Q71.30-45.50 72.35-43.62L72.35-43.62L72.35-43.62Q73.41-41.73 73.86-39.36L73.86-39.36L73.86-39.36Q74.30-36.99 74.30-34.62L74.30-34.62ZM49.98-14.53L49.98-14.53Q49.98-13.82 50.24-13.06L50.24-13.06L50.24-13.06Q50.50-12.29 50.94-11.71L50.94-11.71L50.94-11.71Q51.39-11.14 52.06-10.72L52.06-10.72L52.06-10.72Q52.74-10.30 53.50-10.30L53.50-10.30L53.50-10.30Q56.38-10.30 58.62-12.29L58.62-12.29L58.62-12.29Q60.86-14.27 62.34-17.15L62.34-17.15L62.34-17.15Q63.81-20.03 64.61-23.30L64.61-23.30L64.61-23.30Q65.41-26.56 65.41-29.25L65.41-29.25L65.41-29.25Q65.41-30.02 65.31-30.91L65.31-30.91L65.31-30.91Q65.22-31.81 64.93-32.58L64.93-32.58L64.93-32.58Q64.64-33.34 64.03-33.89L64.03-33.89L64.03-33.89Q63.42-34.43 62.40-34.43L62.40-34.43L62.40-34.43Q60.35-34.43 58.62-33.41L58.62-33.41L58.62-33.41Q56.90-32.38 55.52-30.69L55.52-30.69L55.52-30.69Q54.14-28.99 53.12-26.85L53.12-26.85L53.12-26.85Q52.10-24.70 51.36-22.50L51.36-22.50L51.36-22.50Q50.62-20.29 50.30-18.18L50.30-18.18L50.30-18.18Q49.98-16.06 49.98-14.53L49.98-14.53ZM80.64-2.62L70.27 0.06L70.27 0.06Q72.00-8.45 73.60-16.58L73.60-16.58L73.60-16.58Q74.18-20.03 74.88-23.78L74.88-23.78L74.88-23.78Q75.58-27.52 76.19-31.20L76.19-31.20L76.19-31.20Q76.80-34.88 77.34-38.30L77.34-38.30L77.34-38.30Q77.89-41.73 78.21-44.54L78.21-44.54L78.21-44.54Q81.86-45.70 86.08-46.24L86.08-46.24L86.08-46.24Q90.30-46.78 94.46-46.78L94.46-46.78L94.46-46.78Q96.96-46.78 98.59-46.21L98.59-46.21L98.59-46.21Q100.22-45.63 101.15-44.58L101.15-44.58L101.15-44.58Q102.08-43.52 102.46-42.11L102.46-42.11L102.46-42.11Q102.85-40.70 102.85-38.98L102.85-38.98L102.85-38.98Q102.85-36.42 101.95-33.95L101.95-33.95L101.95-33.95Q101.06-31.49 99.55-29.28L99.55-29.28L99.55-29.28Q98.05-27.07 96.10-25.25L96.10-25.25L96.10-25.25Q94.14-23.42 91.90-22.27L91.90-22.27L91.90-22.27Q93.06-19.71 94.37-16.67L94.37-16.67L94.37-16.67Q95.68-13.63 96.83-10.88L96.83-10.88L96.83-10.88Q98.11-7.68 99.46-4.48L99.46-4.48L89.54-1.02L89.54-1.02Q88.26-5.44 87.23-9.34L87.23-9.34L87.23-9.34Q86.78-10.94 86.34-12.64L86.34-12.64L86.34-12.64Q85.89-14.34 85.50-15.84L85.50-15.84L85.50-15.84Q85.12-17.34 84.86-18.50L84.86-18.50L84.86-18.50Q84.61-19.65 84.54-20.29L84.54-20.29L83.71-20.03L83.71-20.03Q83.33-17.98 82.78-15.04L82.78-15.04L82.78-15.04Q82.24-12.10 81.79-9.34L81.79-9.34L81.79-9.34Q81.22-6.08 80.64-2.62L80.64-2.62ZM87.36-37.89L85.31-27.71L85.31-27.71Q86.53-27.84 88.29-28.74L88.29-28.74L88.29-28.74Q90.05-29.63 91.65-30.88L91.65-30.88L91.65-30.88Q93.25-32.13 94.40-33.47L94.40-33.47L94.40-33.47Q95.55-34.82 95.55-35.84L95.55-35.84L95.55-35.84Q95.55-36.54 95.10-36.96L95.10-36.96L95.10-36.96Q94.66-37.38 93.86-37.60L93.86-37.60L93.86-37.60Q93.06-37.82 92.10-37.89L92.10-37.89L92.10-37.89Q91.14-37.95 90.11-37.95L90.11-37.95L90.11-37.95Q89.41-37.95 88.67-37.92L88.67-37.92L88.67-37.92Q87.94-37.89 87.36-37.89L87.36-37.89ZM109.25-1.47L98.88 0.06L98.88 0.06Q100.80-8.90 102.46-17.34L102.46-17.34L102.46-17.34Q103.10-20.99 103.81-24.90L103.81-24.90L103.81-24.90Q104.51-28.80 105.12-32.64L105.12-32.64L105.12-32.64Q105.73-36.48 106.21-40.10L106.21-40.10L106.21-40.10Q106.69-43.71 106.94-46.66L106.94-46.66L106.94-46.66Q108.42-46.53 110.27-46.43L110.27-46.43L110.27-46.43Q112.13-46.34 113.73-46.21L113.73-46.21L113.73-46.21Q115.65-46.08 117.57-46.08L117.57-46.08L117.57-46.08Q117.50-45.82 117.38-45.12L117.38-45.12L117.38-45.12Q117.25-44.42 117.06-43.42L117.06-43.42L117.06-43.42Q116.86-42.43 116.64-41.22L116.64-41.22L116.64-41.22Q116.42-40 116.16-38.78L116.16-38.78L116.16-38.78Q115.65-35.97 115.01-32.45L115.01-32.45L115.39-32.51L115.39-32.51Q116.03-33.54 117.22-35.36L117.22-35.36L117.22-35.36Q118.40-37.18 119.68-39.23L119.68-39.23L119.68-39.23Q120.96-41.28 122.18-43.17L122.18-43.17L122.18-43.17Q123.39-45.06 124.22-46.40L124.22-46.40L124.22-46.40Q127.42-46.66 130.62-46.98L130.62-46.98L130.62-46.98Q133.82-47.30 137.02-47.81L137.02-47.81L137.02-47.81Q134.02-43.78 131.20-39.87L131.20-39.87L131.20-39.87Q129.98-38.21 128.74-36.42L128.74-36.42L128.74-36.42Q127.49-34.62 126.27-32.90L126.27-32.90L126.27-32.90Q125.06-31.17 124.00-29.57L124.00-29.57L124.00-29.57Q122.94-27.97 122.11-26.62L122.11-26.62L122.11-26.62Q123.52-20.16 125.44-14.14L125.44-14.14L125.44-14.14Q127.36-8.13 129.34-1.86L129.34-1.86L129.34-1.86Q127.87-1.92 126.34-1.95L126.34-1.95L126.34-1.95Q124.80-1.98 123.33-1.98L123.33-1.98L123.33-1.98Q121.47-1.98 119.74-1.95L119.74-1.95L119.74-1.95Q118.02-1.92 116.16-1.86L116.16-1.86L116.16-1.86Q115.58-6.02 114.91-10.59L114.91-10.59L114.91-10.59Q114.24-15.17 113.66-19.33L113.66-19.33L112.51-17.98L112.51-17.98Q112.06-16.06 111.52-13.25L111.52-13.25L111.52-13.25Q110.98-10.43 110.46-7.81L110.46-7.81L110.46-7.81Q109.89-4.74 109.25-1.47L109.25-1.47Z" fill="url(#editing-sticker-gradient)" stroke="#000000" stroke-width="2.5"></path></g></g><style>text {
  font-size: 64px;
  font-family: Arial Black;
  dominant-baseline: central;
  text-anchor: middle;
}</style></svg>